<svg xmlns="http://www.w3.org/2000/svg" width="1000" height="620" viewBox="0 0 1000 620" role="img" aria-labelledby="title desc"><title id="title">Convergence of the calibration solver</title><desc id="desc">RMS position error at the nominal geometry and after each accepted least-squares update.</desc><style>
  .title { font: 600 20px Georgia, 'Times New Roman', serif; fill: #202a35; }
  .label { font: 16px Arial, Helvetica, sans-serif; fill: #202a35; }
  .small { font: 14px Arial, Helvetica, sans-serif; fill: #65717c; }
  .tick { font: 14px Arial, Helvetica, sans-serif; fill: #4c5965; }
  .math { font: italic 20px Georgia, 'Times New Roman', serif; fill: #202a35; }
</style><defs><marker id="arrow" markerWidth="8" markerHeight="8" refX="7" refY="4" orient="auto" markerUnits="strokeWidth"><path d="M0,0 L8,4 L0,8 Z" fill="#65717c"/></marker></defs><rect width="100%" height="100%" fill="#fff"/><text x="56.00" y="52.00" class="title" text-anchor="start" >C  |  OPTIMIZATION CONVERGENCE</text><line x1="56.00" y1="69.00" x2="944.00" y2="69.00" stroke="#d9dee2" stroke-width="1" /><text x="125.00" y="111.00" class="label" text-anchor="start" >RMS position error (mm; logarithmic axis)</text><line x1="125.00" y1="457.77" x2="915.00" y2="457.77" stroke="#d9dee2" stroke-width="1" /><text x="107.00" y="462.77" class="tick" text-anchor="end" >0.01</text><line x1="125.00" y1="317.50" x2="915.00" y2="317.50" stroke="#d9dee2" stroke-width="1" /><text x="107.00" y="322.50" class="tick" text-anchor="end" >0.1</text><line x1="125.00" y1="177.23" x2="915.00" y2="177.23" stroke="#d9dee2" stroke-width="1" /><text x="107.00" y="182.23" class="tick" text-anchor="end" >1</text><line x1="125.00" y1="135.00" x2="125.00" y2="500.00" stroke="#202a35" stroke-width="1.5" /><line x1="125.00" y1="500.00" x2="915.00" y2="500.00" stroke="#202a35" stroke-width="1.5" /><text x="125.00" y="528.00" class="tick" text-anchor="middle" >0</text><text x="388.33" y="528.00" class="tick" text-anchor="middle" >1</text><text x="651.67" y="528.00" class="tick" text-anchor="middle" >2</text><text x="915.00" y="528.00" class="tick" text-anchor="middle" >3</text><polyline points="125.00,170.13 388.33,429.47 651.67,438.68 915.00,438.68" fill="none" stroke="#245b78" stroke-width="2.5"/><circle cx="125.00" cy="170.13" r="6" fill="#fff" stroke="#245b78" stroke-width="2.5"/><circle cx="388.33" cy="429.47" r="6" fill="#fff" stroke="#245b78" stroke-width="2.5"/><circle cx="651.67" cy="438.68" r="6" fill="#fff" stroke="#245b78" stroke-width="2.5"/><circle cx="915.00" cy="438.68" r="6" fill="#fff" stroke="#245b78" stroke-width="2.5"/><text x="137.00" y="158.13" class="small" text-anchor="start" >1.1236 mm</text><text x="905.00" y="421.68" class="small" text-anchor="end" >0.0137 mm</text><text x="520.00" y="563.00" class="label" text-anchor="middle" >Accepted solver update</text><text x="56.00" y="586.00" class="small" text-anchor="start" >Iteration 0 is the nominal geometry; only accepted updates are plotted.</text></svg>
